<svg width="32" height="32" viewBox="0 0 32 32" fill="none" xmlns="http://www.w3.org/2000/svg">
<path d="M0 16C0 7.16344 7.16344 0 16 0C24.8366 0 32 7.16344 32 16C32 24.8366 24.8366 32 16 32C7.16344 32 0 24.8366 0 16Z" fill="#14467C"/>
<path fill-rule="evenodd" clip-rule="evenodd" d="M16.0008 7.46655C13.6833 7.46655 13.3924 7.47669 12.4822 7.51811C11.5737 7.55971 10.9536 7.70353 10.4111 7.91456C9.84981 8.13252 9.37372 8.42407 8.8994 8.89857C8.42473 9.37288 8.13317 9.84898 7.9145 10.4101C7.70294 10.9528 7.55894 11.5731 7.51805 12.4812C7.47734 13.3914 7.46667 13.6824 7.46667 16C7.46667 18.3175 7.47699 18.6075 7.51823 19.5177C7.56001 20.4262 7.70383 21.0462 7.91468 21.5888C8.13281 22.1501 8.42437 22.6262 8.89887 23.1005C9.37301 23.5752 9.8491 23.8674 10.41 24.0854C10.9529 24.2964 11.5732 24.4402 12.4815 24.4818C13.3917 24.5233 13.6824 24.5334 15.9997 24.5334C18.3175 24.5334 18.6074 24.5233 19.5176 24.4818C20.4261 24.4402 21.0469 24.2964 21.5898 24.0854C22.1509 23.8674 22.6263 23.5752 23.1004 23.1005C23.5751 22.6262 23.8667 22.1501 24.0853 21.589C24.2951 21.0463 24.4391 20.426 24.4818 19.5179C24.5227 18.6076 24.5333 18.3175 24.5333 16C24.5333 13.6824 24.5227 13.3916 24.4818 12.4814C24.4391 11.5729 24.2951 10.9528 24.0853 10.4102C23.8667 9.84898 23.5751 9.37288 23.1004 8.89857C22.6258 8.4239 22.1511 8.13234 21.5893 7.91456C21.0453 7.70353 20.4249 7.55971 19.5164 7.51811C18.6062 7.47669 18.3164 7.46655 15.9981 7.46655H16.0008ZM15.7163 9.00426H15.7164L16.0008 9.00435C18.2792 9.00435 18.5493 9.01252 19.449 9.05341C20.281 9.09146 20.7326 9.23048 21.0334 9.34728C21.4316 9.50195 21.7155 9.68684 22.014 9.98551C22.3127 10.2842 22.4976 10.5686 22.6526 10.9669C22.7694 11.2673 22.9086 11.7189 22.9465 12.5509C22.9874 13.4504 22.9963 13.7207 22.9963 15.998C22.9963 18.2754 22.9874 18.5456 22.9465 19.4452C22.9084 20.2772 22.7694 20.7287 22.6526 21.0292C22.4979 21.4274 22.3127 21.711 22.014 22.0095C21.7154 22.3081 21.4318 22.493 21.0334 22.6477C20.733 22.765 20.281 22.9037 19.449 22.9417C18.5495 22.9826 18.2792 22.9915 16.0008 22.9915C13.7222 22.9915 13.4522 22.9826 12.5526 22.9417C11.7206 22.9033 11.269 22.7643 10.968 22.6475C10.5698 22.4928 10.2854 22.308 9.9867 22.0093C9.68803 21.7106 9.50314 21.4269 9.34812 21.0285C9.23132 20.728 9.09212 20.2765 9.05425 19.4445C9.01336 18.5449 9.00518 18.2747 9.00518 15.9959C9.00518 13.7171 9.01336 13.4483 9.05425 12.5487C9.09229 11.7167 9.23132 11.2652 9.34812 10.9644C9.50279 10.5661 9.68803 10.2817 9.9867 9.98302C10.2854 9.68435 10.5698 9.49946 10.968 9.34444C11.2688 9.2271 11.7206 9.08844 12.5526 9.05021C13.3398 9.01466 13.6449 9.00399 15.2353 9.00221V9.00435C15.3839 9.00411 15.5438 9.00419 15.7163 9.00426ZM19.5319 11.4449C19.5319 10.8794 19.9905 10.4213 20.5559 10.4213V10.4209C21.1212 10.4209 21.5799 10.8796 21.5799 11.4449C21.5799 12.0102 21.1212 12.4689 20.5559 12.4689C19.9905 12.4689 19.5319 12.0102 19.5319 11.4449ZM16.0006 11.6177C13.5806 11.6178 11.6185 13.5799 11.6185 16C11.6185 18.4201 13.5807 20.3814 16.0008 20.3814C18.4209 20.3814 20.3824 18.4201 20.3824 16C20.3824 13.5799 18.4207 11.6177 16.0006 11.6177ZM18.8453 16C18.8453 14.4289 17.5717 13.1555 16.0008 13.1555C14.4298 13.1555 13.1563 14.4289 13.1563 16C13.1563 17.5708 14.4298 18.8444 16.0008 18.8444C17.5717 18.8444 18.8453 17.5708 18.8453 16Z" fill="#EDF1F6"/>
</svg>
