<svg width="126" height="105" viewBox="0 0 126 105" fill="none" xmlns="http://www.w3.org/2000/svg">
<path d="M74.169 43.6232C68.1689 33.8706 64.143 23.034 62.3201 11.729C61.8133 8.54716 61.4768 5.34056 61.3121 2.12286C61.3118 1.58405 61.1069 1.06548 60.7386 0.672174C60.3704 0.278871 59.8665 0.0402501 59.329 0.00464524C58.7915 -0.0309596 58.2605 0.139114 57.8437 0.480416C57.4268 0.821718 57.1553 1.30873 57.084 1.8428C55.2966 11.5096 53.0752 23.5148 46.9757 33.2796C43.0333 32.5534 39.0568 32.0252 35.0615 31.6973C30.7447 31.3379 26.8153 31.1838 23.0539 31.2305C22.7669 31.2274 22.4821 31.2811 22.2159 31.3884C21.9497 31.4957 21.7073 31.6545 21.5027 31.8557C21.298 32.057 21.1351 32.2966 21.0233 32.561C20.9115 32.8254 20.853 33.1093 20.8512 33.3963C20.8355 33.6662 20.8739 33.9365 20.9643 34.1913C21.0546 34.4461 21.195 34.6802 21.3773 34.8799C21.5595 35.0795 21.7798 35.2407 22.0253 35.3539C22.2708 35.467 22.5364 35.5299 22.8066 35.5388L26.7966 35.8142C32.2288 36.1829 37.8429 36.5657 43.317 37.3732L43.9844 37.4759C42.471 39.3354 40.7485 41.0144 38.8509 42.4796C38.6915 42.596 38.5576 42.7439 38.4575 42.9139C38.3573 43.084 38.293 43.2728 38.2686 43.4687C38.2441 43.6646 38.2599 43.8634 38.3151 44.0529C38.3703 44.2425 38.4637 44.4187 38.5896 44.5707C38.7191 44.7481 38.8827 44.8978 39.0707 45.0111C39.2588 45.1244 39.4675 45.1992 39.6848 45.2309C39.902 45.2626 40.1234 45.2507 40.336 45.1959C40.5486 45.141 40.7481 45.0443 40.923 44.9115C43.4771 42.9435 45.7795 40.6689 47.7784 38.1387C52.4963 39.0268 57.1289 40.3199 61.6247 42.0035C64.8785 43.2439 68.0238 44.752 71.0283 46.5125C71.2875 46.6633 71.5745 46.7601 71.872 46.797C72.1696 46.8339 72.4715 46.8101 72.7597 46.7272C73.1858 46.6102 73.5736 46.3833 73.8843 46.0691C74.2088 45.7581 74.4147 45.3438 74.4666 44.8974C74.5186 44.451 74.4133 44.0004 74.169 43.6232ZM65.4655 36.701C65.8668 37.5692 66.2915 38.4468 66.7489 39.3523C61.5871 37.0407 56.2035 35.2609 50.6812 34.0405C53.9479 28.8593 56.5053 22.558 58.512 14.8423C59.9071 22.3876 62.2432 29.7281 65.4655 36.6917V36.701Z" fill="#F7941D"/>
<path d="M103.35 43.0025C103.136 42.6526 102.802 42.3927 102.411 42.2715C102.019 42.1503 101.596 42.1762 101.222 42.3444C90.9479 46.4672 80.2248 49.3686 69.2735 50.9889C69.0815 51.0139 68.8965 51.0773 68.7295 51.1753C68.5625 51.2733 68.4169 51.404 68.3015 51.5595C68.1861 51.715 68.1032 51.8922 68.0577 52.0805C68.0123 52.2687 68.0051 52.4642 68.0368 52.6553C68.0582 52.8524 68.1186 53.0433 68.2145 53.2168C68.3104 53.3903 68.4399 53.543 68.5954 53.666C68.7509 53.7889 68.9293 53.8797 69.1203 53.933C69.3112 53.9862 69.5109 54.0009 69.7075 53.9762C75.8888 53.2732 82.0065 52.0934 88.0059 50.4475C85.1987 51.7341 82.3063 52.8258 79.3491 53.7148C71.7096 56.002 62.9594 57.1409 53.3505 57.0989C49.5611 57.0989 45.711 56.8375 41.9869 56.6041C40.4842 56.5061 38.9955 56.4128 37.4788 56.3287C36.9098 56.2808 36.345 56.4601 35.9078 56.8275C35.4705 57.1948 35.1965 57.7203 35.1455 58.2892C35.1115 58.562 35.1317 58.8388 35.2048 59.1038C35.2779 59.3688 35.4026 59.6168 35.5716 59.8336C35.7407 60.0503 35.9508 60.2316 36.19 60.3671C36.4291 60.5026 36.6927 60.5895 36.9655 60.623C39.873 61.0891 42.8032 61.4008 45.7437 61.5565C47.5264 61.6546 49.4164 61.7153 51.4325 61.7339C56.3116 61.8236 61.191 61.5709 66.0348 60.9778C75.261 59.7642 83.6752 57.2436 91.0487 53.4535C95.3714 51.2724 99.3947 48.5426 103.019 45.3317C103.346 45.0487 103.559 44.6571 103.62 44.2291C103.681 43.8011 103.585 43.3654 103.35 43.0025Z" fill="#047BC1"/>
<path d="M23.5719 74.556H24.5519C26.4419 74.556 27.646 73.5665 27.646 71.9935C27.646 70.4205 26.4419 69.4309 24.5519 69.4309H21.2852V76.2224H23.5719V74.556ZM23.5719 71.2H24.4072C25.0372 71.2 25.3406 71.4987 25.3406 71.9935C25.3406 72.4882 25.0419 72.7916 24.4072 72.7916H23.5719V71.2Z" fill="#14467C"/>
<path d="M30.684 74.5187H31.2907L32.4434 76.2224H34.8888L33.4607 74.1266C33.8593 73.9349 34.1931 73.6308 34.4211 73.2519C34.6491 72.8729 34.7614 72.4355 34.7441 71.9935C34.7441 70.4205 33.5401 69.4309 31.65 69.4309H28.3833V76.2224H30.6747L30.684 74.5187ZM30.684 71.2H31.5147C32.1447 71.2 32.4481 71.4987 32.4481 71.9935C32.4481 72.4882 32.1447 72.7916 31.5147 72.7916H30.684V71.2Z" fill="#14467C"/>
<path d="M41.2636 74.4953H37.8709V73.6038H40.7409V71.9561H37.8709V71.1579H41.1376V69.4309H35.6215V76.2224H41.2636V74.4953Z" fill="#14467C"/>
<path d="M44.437 74.0519H47.2698V72.3249H44.437V71.1579H47.6664V69.4309H42.1503V76.2224H44.437V74.0519Z" fill="#14467C"/>
<path d="M54.0412 74.4953H50.6438V73.6038H53.5185V71.9561H50.6438V71.1579H53.9152V69.4309H48.3944V76.2224H54.0412V74.4953Z" fill="#14467C"/>
<path d="M57.21 69.4309H54.9232V76.2224H57.21V69.4309Z" fill="#14467C"/>
<path d="M59.7907 76.2224H62.0821V71.2093H64.0701V69.4309H57.8027V71.2093H59.7907V76.2224Z" fill="#14467C"/>
<path d="M68.8723 73.0997C68.8723 74.1406 68.4756 74.528 67.8316 74.528C67.1876 74.528 66.7955 74.1406 66.7955 73.0997V69.4309H64.5088V73.1651C64.5088 75.2002 65.7269 76.3764 67.8129 76.3764C69.899 76.3764 71.1216 75.2002 71.1216 73.1651V69.4309H68.8723V73.0997Z" fill="#14467C"/>
<path d="M74.4584 74.5187H75.0791L76.2317 76.2224H80.9872L81.4539 75.0415H84.0253L84.4919 76.2224H86.8253L83.8573 69.4309H81.6079L78.6491 76.2084L77.2491 74.1266C77.6464 73.9337 77.9789 73.6293 78.206 73.2505C78.4331 72.8716 78.5449 72.4348 78.5278 71.9935C78.5278 70.4205 77.3238 69.4309 75.4337 69.4309H72.167V76.2224H74.4537L74.4584 74.5187ZM82.7326 71.6854L83.3906 73.3891H82.0746L82.7326 71.6854ZM74.4584 71.2186H75.2937C75.9238 71.2186 76.2271 71.5174 76.2271 72.0121C76.2271 72.5069 75.9284 72.8103 75.2937 72.8103H74.4584V71.2186Z" fill="#14467C"/>
<path d="M97.3021 72.829C97.3021 70.7239 95.7388 69.4309 93.4707 69.4309H90.1246V76.2224H93.4707C95.7388 76.2224 97.3021 74.9341 97.3021 72.829ZM92.4254 74.43V71.2093H93.3587C93.7857 71.2093 94.1952 71.379 94.4972 71.681C94.7991 71.983 94.9688 72.3926 94.9688 72.8196C94.9688 73.2467 94.7991 73.6563 94.4972 73.9583C94.1952 74.2603 93.7857 74.43 93.3587 74.43H92.4254Z" fill="#14467C"/>
<path d="M103.784 74.4953H100.387V73.6038H103.257V71.9561H100.387V71.1579H103.654V69.4309H98.1376V76.2224H103.784V74.4953Z" fill="#14467C"/>
<path d="M18.8257 83.5317L12.3343 94.4354L5.67013 83.5317H0V104H6.28614V94.9909L10.7289 102.156H13.767L18.2097 94.6688L18.2704 104H24.5519L24.4959 83.5317H18.8257Z" fill="#14467C"/>
<path d="M34.6041 83.5317L25.6626 104H32.6628L34.0348 100.429H41.8096L43.1863 104H50.3311L41.3849 83.5317H34.6041ZM35.9575 95.4623L37.9455 90.3279L39.9336 95.4623H35.9575Z" fill="#14467C"/>
<path d="M62.0913 88.6477C63.9347 88.6477 65.3581 89.5253 66.5668 91.0469L70.9209 87.1587C68.9048 84.5262 65.7454 83.0652 61.7413 83.0652C55.1658 83.0652 50.3451 87.4808 50.3451 93.7635C50.3451 100.046 55.1658 104.466 61.7413 104.466C65.7454 104.466 68.9048 103.006 70.9209 100.373L66.5668 96.4848C65.3674 98.0064 63.9347 98.8793 62.0913 98.8793C59.2306 98.8793 57.2986 96.8955 57.2986 93.7448C57.2986 90.5942 59.2166 88.6477 62.0913 88.6477Z" fill="#14467C"/>
<path d="M79.6758 96.1018H88.328V91.1354H79.6758V88.7362H89.5273V83.5317H72.895V104H89.9053V98.795H79.6758V96.1018Z" fill="#14467C"/>
<path d="M99.4629 83.5317H92.5654V103.995H99.4629V83.5317Z" fill="#14467C"/>
<path d="M115.293 83.1863L118.597 81.758L116.576 77.0903L108.451 80.6098L109.744 83.5971C105.077 84.9554 101.978 88.8156 101.978 93.7633C101.978 99.962 106.86 104.466 113.524 104.466C120.188 104.466 125.069 99.962 125.069 93.7633C125.065 88.1294 121.028 83.9098 115.293 83.1863ZM113.524 98.8791C110.98 98.8791 108.936 96.9513 108.936 93.7446C108.936 90.5379 110.98 88.6102 113.524 88.6102C116.067 88.6102 118.111 90.5426 118.111 93.7446C118.111 96.9466 116.063 98.8791 113.519 98.8791H113.524Z" fill="#14467C"/>
</svg>
