<svg width="67" height="24" viewBox="0 0 67 24" fill="none" xmlns="http://www.w3.org/2000/svg">
<path opacity="0.4" d="M0.623207 19.3155L7.64749 13.0003C8.92559 11.7797 9.20022 11.1853 9.33754 10.1134C9.49598 8.83971 9.23191 8.51068 7.96437 8.51068C6.61233 8.51068 5.05959 9.03075 3.30616 10.0815L2.87309 5.09305C4.78496 4.04229 7.12991 3.52222 9.95018 3.52222C14.376 3.52222 16.6259 5.60251 16.1083 9.23241C15.7492 11.7479 14.8408 13.202 11.1332 16.2906L8.84109 18.2966H14.9147L14.1542 23.423H0L0.623207 19.3155Z" fill="#F7941D"/>
<path opacity="0.4" d="M17.6821 8.33034H24.1993L22.0868 23.4231H15.5801L17.6821 8.33034ZM18.0518 3.76643C18.4215 1.31465 19.4883 0.423096 22.1079 0.423096C24.6852 0.423096 25.488 1.30404 25.1289 3.7452C24.7592 6.22882 23.6818 7.12037 21.0622 7.12037C18.4743 7.10976 17.6821 6.2182 18.0518 3.76643Z" fill="#F7941D"/>
<path opacity="0.4" d="M39.7373 12.491C38.6493 20.239 35.3854 23.4125 28.9632 23.4125C27.083 23.4125 26.2908 23.3488 23.46 23.3488L24.231 18.2118C27.2626 18.2118 27.759 18.2118 29.2061 18.2118C31.4032 18.2118 32.3327 18.2754 32.8609 15.8555C31.9208 16.4074 30.9173 16.6728 29.7871 16.6728C26.0373 16.6728 24.3261 14.5606 24.9071 10.485C25.5831 5.8149 28.3083 3.51172 33.22 3.51172C38.4275 3.52233 40.5823 6.49418 39.7373 12.491ZM31.9736 11.9921C32.4912 11.9921 32.9771 11.9284 33.4524 11.8117C33.727 9.2113 33.4841 8.70184 32.4278 8.70184C31.4243 8.70184 31.1286 9.03087 30.9701 10.347C30.8222 11.6631 31.0335 11.9921 31.9736 11.9921Z" fill="#F7941D"/>
<path opacity="0.4" d="M42.9484 9.51904C42.9695 9.51904 43.0012 9.52966 43.0224 9.54027C43.0435 9.55089 43.0646 9.5615 43.0752 9.58273C43.0963 9.60395 43.1069 9.62518 43.128 9.65702L44.4906 12.0663C44.4906 12.0027 44.5011 11.9496 44.5117 11.8859C44.5223 11.8328 44.5223 11.7798 44.5328 11.7267L44.7969 9.52966H45.568L45.0927 13.4249H44.6385C44.5751 13.4249 44.5117 13.4143 44.4695 13.3931C44.4272 13.3718 44.385 13.34 44.3533 13.2763L43.0012 10.8776C43.0012 10.9307 42.9907 10.9731 42.9907 11.0262C42.9907 11.0687 42.9801 11.1111 42.9801 11.1536L42.716 13.4249H41.9449L42.4203 9.52966H42.8745C42.8956 9.51904 42.9273 9.51904 42.9484 9.51904Z" fill="#F7941D"/>
<path opacity="0.4" d="M48.3249 10.1877H46.8883L46.7721 11.1323H47.8707L47.7862 11.7798H46.6982L46.582 12.7456H48.0291L47.9446 13.4143H45.6313L46.1067 9.51904H48.4199L48.3249 10.1877Z" fill="#F7941D"/>
<path opacity="0.4" d="M50.1523 12.7777C50.2579 12.7777 50.353 12.7671 50.4375 12.7458C50.522 12.7246 50.6065 12.7034 50.6804 12.6715L50.7544 12.0347H50.4269C50.3741 12.0347 50.3424 12.0241 50.3107 12.0029C50.2791 11.9817 50.2685 11.9498 50.2685 11.9074L50.3319 11.4085H51.6205L51.4198 13.0324C51.3248 13.1067 51.2191 13.1704 51.1135 13.2235C51.0079 13.2765 50.8917 13.319 50.7755 13.3508C50.6593 13.3827 50.5326 13.4145 50.4058 13.4251C50.2791 13.4463 50.1417 13.4464 49.9939 13.4464C49.7509 13.4464 49.5397 13.4039 49.339 13.319C49.1383 13.2341 48.9693 13.1067 48.8319 12.9581C48.6946 12.7989 48.5784 12.6185 48.5045 12.4062C48.4306 12.1939 48.3883 11.9604 48.3883 11.7163C48.3883 11.504 48.4094 11.2918 48.4622 11.1007C48.5151 10.9097 48.5784 10.7292 48.6735 10.5594C48.7686 10.3896 48.8742 10.241 49.0009 10.1136C49.1277 9.98627 49.265 9.86951 49.4235 9.77399C49.5819 9.67847 49.7509 9.60417 49.9199 9.5511C50.0995 9.49803 50.2896 9.47681 50.4797 9.47681C50.6488 9.47681 50.7966 9.48742 50.9234 9.51926C51.0501 9.5511 51.1769 9.59356 51.2825 9.63601C51.3882 9.68908 51.4832 9.74215 51.5677 9.81644C51.6522 9.88013 51.7262 9.95442 51.7895 10.0287L51.5043 10.379C51.441 10.4533 51.367 10.4957 51.2931 10.4957C51.2403 10.4957 51.198 10.4745 51.1452 10.4427C51.0818 10.4002 51.0185 10.3684 50.9656 10.3365C50.9128 10.3047 50.86 10.2835 50.7966 10.2622C50.7438 10.241 50.6804 10.2304 50.6171 10.2198C50.5537 10.2092 50.4797 10.1985 50.4058 10.1985C50.2368 10.1985 50.0784 10.2304 49.941 10.3047C49.8037 10.379 49.677 10.4745 49.5819 10.6125C49.4868 10.7505 49.4023 10.8991 49.3495 11.0795C49.2967 11.2599 49.265 11.4616 49.265 11.6845C49.265 11.8543 49.2861 12.0135 49.3284 12.1409C49.3707 12.2788 49.434 12.3956 49.508 12.4805C49.5819 12.576 49.677 12.6503 49.7826 12.6928C49.8988 12.7565 50.0255 12.7777 50.1523 12.7777Z" fill="#F7941D"/>
<path opacity="0.4" d="M55.645 11.2068C55.645 11.4191 55.6239 11.6207 55.5711 11.8118C55.5183 12.0028 55.4549 12.1833 55.3598 12.3531C55.2753 12.5229 55.1591 12.6715 55.0324 12.8095C54.9056 12.9475 54.7683 13.0642 54.6099 13.1597C54.4514 13.2553 54.2824 13.3296 54.0923 13.3826C53.9021 13.4357 53.712 13.4569 53.5113 13.4569C53.2578 13.4569 53.0254 13.4145 52.8247 13.3189C52.624 13.234 52.4445 13.1067 52.3072 12.9475C52.1698 12.7882 52.0537 12.6078 51.9797 12.3955C51.9058 12.1833 51.8635 11.9604 51.8635 11.7163C51.8635 11.504 51.8846 11.3023 51.9375 11.1113C51.9903 10.9202 52.0537 10.7398 52.1487 10.57C52.2438 10.4002 52.3494 10.2516 52.4762 10.1136C52.6029 9.97561 52.7508 9.85885 52.9092 9.76333C53.0677 9.66781 53.2367 9.59351 53.4268 9.54044C53.6064 9.48737 53.8071 9.46615 54.0078 9.46615C54.2613 9.46615 54.4937 9.5086 54.6944 9.60412C54.8951 9.68903 55.0746 9.8164 55.2119 9.9756C55.3493 10.1348 55.4654 10.3152 55.5394 10.5275C55.6028 10.7398 55.645 10.9733 55.645 11.2068ZM54.7577 11.2386C54.7577 11.0794 54.7366 10.9308 54.7049 10.8035C54.6732 10.6761 54.6099 10.5594 54.5359 10.4638C54.462 10.3683 54.3775 10.294 54.2613 10.2516C54.1557 10.1985 54.0395 10.1773 53.9021 10.1773C53.7226 10.1773 53.5641 10.2091 53.4268 10.2834C53.2895 10.3577 53.1627 10.4638 53.0677 10.5912C52.9726 10.7292 52.8987 10.8884 52.8459 11.0688C52.7931 11.2599 52.7719 11.4615 52.7719 11.695C52.7719 11.8542 52.7931 12.0028 52.8247 12.1302C52.867 12.2576 52.9198 12.3743 52.9832 12.4592C53.0466 12.5441 53.1416 12.6184 53.2473 12.6715C53.3529 12.7246 53.4796 12.7458 53.617 12.7458C53.7965 12.7458 53.955 12.714 54.0923 12.6397C54.2296 12.5654 54.3564 12.4592 54.4514 12.3319C54.5465 12.1939 54.6204 12.0347 54.6838 11.8542C54.7472 11.6738 54.7577 11.4615 54.7577 11.2386ZM55.2225 8.60643L54.4725 9.14773C54.4197 9.19019 54.3669 9.22203 54.3247 9.23264C54.2824 9.25387 54.2296 9.25387 54.1768 9.25387H53.5219L54.0289 8.71257C54.0606 8.69134 54.0817 8.67011 54.1028 8.64889C54.124 8.62766 54.1451 8.61705 54.1662 8.61705C54.1873 8.61705 54.219 8.60643 54.2402 8.59582C54.2613 8.5852 54.3035 8.58521 54.3458 8.58521H55.2225V8.60643Z" fill="#F7941D"/>
<path opacity="0.4" d="M57.4301 12.7351C57.5251 12.7351 57.6097 12.7245 57.6836 12.7139C57.7575 12.7033 57.8209 12.682 57.8737 12.6608C57.9265 12.6396 57.9688 12.6077 58.0005 12.5865C58.0322 12.5547 58.0639 12.5335 58.0955 12.5122C58.1272 12.491 58.1484 12.4698 58.18 12.4592C58.2117 12.4485 58.2329 12.4379 58.2645 12.4379C58.2962 12.4379 58.3174 12.4379 58.3385 12.4485C58.3596 12.4592 58.3702 12.4698 58.3807 12.4804L58.6871 12.8519C58.5181 13.0535 58.3174 13.2021 58.085 13.3083C57.8526 13.4144 57.5885 13.4675 57.2928 13.4675C57.0498 13.4675 56.828 13.425 56.6379 13.3401C56.4477 13.2552 56.2893 13.1384 56.1625 12.9792C56.0358 12.82 55.9302 12.6502 55.8668 12.4379C55.8034 12.2257 55.7717 12.0028 55.7717 11.7693C55.7717 11.5464 55.7928 11.3341 55.8457 11.1324C55.8985 10.9308 55.9619 10.7503 56.0569 10.5805C56.152 10.4107 56.2576 10.2621 56.3844 10.1241C56.5111 9.98615 56.6484 9.8694 56.8069 9.78449C56.9653 9.68896 57.1238 9.61467 57.3033 9.5616C57.4829 9.50853 57.6625 9.4873 57.8632 9.4873C58.011 9.4873 58.1378 9.49792 58.2645 9.52976C58.3807 9.5616 58.4969 9.59344 58.592 9.64651C58.6871 9.69958 58.7716 9.75265 58.8561 9.81633C58.93 9.88001 59.0039 9.95431 59.0568 10.0392L58.7504 10.3895C58.7293 10.4107 58.7082 10.4319 58.6765 10.4532C58.6448 10.4744 58.6131 10.485 58.5603 10.485C58.5286 10.485 58.5075 10.4744 58.4758 10.4638C58.4547 10.4532 58.423 10.4319 58.4019 10.4107C58.3807 10.3895 58.349 10.3682 58.3174 10.347C58.2857 10.3258 58.2434 10.3046 58.2012 10.2833C58.1589 10.2621 58.1061 10.2409 58.0427 10.2303C57.9794 10.2197 57.9054 10.209 57.8209 10.209C57.6625 10.209 57.504 10.2409 57.3667 10.3152C57.2294 10.3895 57.1026 10.485 56.997 10.6124C56.8914 10.7397 56.8069 10.8989 56.7541 11.0794C56.6907 11.2598 56.6696 11.4721 56.6696 11.695C56.6696 11.8648 56.6907 12.0134 56.7329 12.1407C56.7752 12.2681 56.828 12.3849 56.8914 12.4698C56.9653 12.5547 57.0393 12.629 57.1343 12.6714C57.2188 12.7139 57.3245 12.7351 57.4301 12.7351Z" fill="#F7941D"/>
<path opacity="0.4" d="M59.8384 13.4143H58.9617L59.437 9.51904H60.3137L59.8384 13.4143Z" fill="#F7941D"/>
<path opacity="0.4" d="M64.2535 11.2067C64.2535 11.419 64.2324 11.6207 64.1796 11.8117C64.1268 12.0028 64.0634 12.1832 63.9683 12.353C63.8838 12.5228 63.7676 12.6714 63.6409 12.8094C63.5141 12.9474 63.3768 13.0641 63.2184 13.1596C63.0599 13.2552 62.8909 13.3295 62.7008 13.3825C62.5107 13.4356 62.3205 13.4568 62.1198 13.4568C61.8663 13.4568 61.634 13.4144 61.4333 13.3189C61.2326 13.2339 61.053 13.1066 60.9157 12.9474C60.7784 12.7882 60.6622 12.6077 60.5882 12.3955C60.5143 12.1832 60.472 11.9603 60.472 11.7162C60.472 11.5039 60.4932 11.3022 60.546 11.1112C60.5988 10.9201 60.6622 10.7397 60.7572 10.5699C60.8523 10.4001 60.9579 10.2515 61.0847 10.1135C61.2114 9.97552 61.3593 9.85877 61.5178 9.76325C61.6762 9.66772 61.8452 9.59343 62.0353 9.54036C62.2149 9.48729 62.4156 9.46606 62.6163 9.46606C62.8698 9.46606 63.1022 9.50852 63.3029 9.60404C63.5036 9.68895 63.6831 9.81632 63.8205 9.97552C63.9578 10.1347 64.074 10.3152 64.1479 10.5274C64.2218 10.7397 64.2535 10.9732 64.2535 11.2067ZM63.3663 11.2386C63.3663 11.0794 63.3451 10.9308 63.3134 10.8034C63.2818 10.676 63.2184 10.5593 63.1444 10.4638C63.0705 10.3682 62.986 10.2939 62.8698 10.2515C62.7642 10.1984 62.648 10.1772 62.5107 10.1772C62.3311 10.1772 62.1727 10.209 62.0353 10.2833C61.898 10.3576 61.7713 10.4638 61.6762 10.5911C61.5811 10.7291 61.5072 10.8883 61.4544 11.0687C61.4016 11.2598 61.3804 11.4614 61.3804 11.695C61.3804 11.8542 61.4016 12.0028 61.4333 12.1301C61.4755 12.2575 61.5283 12.3742 61.5917 12.4591C61.6551 12.5441 61.7501 12.6183 61.8558 12.6714C61.9614 12.7245 62.0882 12.7457 62.2255 12.7457C62.405 12.7457 62.5635 12.7139 62.7008 12.6396C62.8381 12.5653 62.9649 12.4591 63.0599 12.3318C63.155 12.1938 63.2289 12.0346 63.2923 11.8542C63.3557 11.6737 63.3663 11.4615 63.3663 11.2386Z" fill="#F7941D"/>
<path opacity="0.4" d="M66.7465 10.2939C66.7148 10.3364 66.6831 10.3682 66.6514 10.3895C66.6197 10.4107 66.588 10.4213 66.5458 10.4213C66.5035 10.4213 66.4613 10.4107 66.419 10.3789C66.3768 10.347 66.3345 10.3258 66.2817 10.2939C66.2289 10.2621 66.1761 10.2303 66.1127 10.209C66.0493 10.1772 65.9648 10.1666 65.8803 10.1666C65.7958 10.1666 65.7324 10.1772 65.6691 10.1984C65.6057 10.2197 65.5529 10.2515 65.5212 10.2939C65.4789 10.3364 65.4472 10.3789 65.4261 10.4425C65.405 10.4956 65.3944 10.5593 65.3944 10.623C65.3944 10.6973 65.4155 10.7503 65.4578 10.8034C65.5001 10.8565 65.5529 10.8989 65.6162 10.9308C65.6796 10.9626 65.7536 11.0051 65.8381 11.0263C65.9226 11.0581 66.0071 11.09 66.0916 11.1218C66.1761 11.1537 66.2606 11.1961 66.3451 11.2492C66.4296 11.3023 66.5035 11.3553 66.5669 11.419C66.6303 11.4827 66.6831 11.5676 66.7253 11.6737C66.7676 11.7693 66.7887 11.886 66.7887 12.024C66.7887 12.215 66.757 12.4061 66.6831 12.5759C66.6197 12.7457 66.5141 12.9049 66.3979 13.0323C66.2711 13.1597 66.1233 13.2658 65.9437 13.3401C65.7641 13.4144 65.5634 13.4568 65.3311 13.4568C65.2149 13.4568 65.1092 13.4462 64.993 13.4144C64.8768 13.3932 64.7712 13.3507 64.6656 13.3083C64.56 13.2658 64.4649 13.2127 64.3804 13.149C64.2959 13.0854 64.2114 13.0217 64.1586 12.9368L64.4649 12.5334C64.486 12.5016 64.5177 12.4804 64.56 12.4592C64.6022 12.4379 64.6339 12.4273 64.6762 12.4273C64.729 12.4273 64.7712 12.4485 64.824 12.4804C64.8663 12.5122 64.9191 12.5547 64.9825 12.5971C65.0353 12.6396 65.1092 12.682 65.1832 12.7139C65.2571 12.7457 65.3522 12.767 65.4578 12.767C65.6162 12.767 65.743 12.7245 65.8275 12.6396C65.912 12.5547 65.9543 12.4167 65.9543 12.2469C65.9543 12.162 65.9331 12.0983 65.8909 12.0452C65.8486 11.9921 65.7958 11.9497 65.7324 11.9179C65.6691 11.886 65.5951 11.8542 65.5106 11.8223C65.4261 11.7905 65.3416 11.7693 65.2571 11.7374C65.1726 11.7056 65.0881 11.6631 65.0036 11.6207C64.9191 11.5782 64.8452 11.5251 64.7818 11.4508C64.7184 11.3766 64.6656 11.2916 64.6233 11.1961C64.5811 11.09 64.56 10.9626 64.56 10.814C64.56 10.6442 64.5916 10.4744 64.655 10.3152C64.7184 10.156 64.8135 10.018 64.9297 9.89063C65.0458 9.76326 65.1937 9.66774 65.3733 9.59344C65.5423 9.51915 65.743 9.4873 65.9543 9.4873C66.0599 9.4873 66.1761 9.49792 66.2711 9.51914C66.3768 9.54037 66.4718 9.57221 66.5669 9.61467C66.662 9.65712 66.7359 9.69958 66.8099 9.76326C66.8838 9.82694 66.9472 9.88001 67 9.94369L66.7465 10.2939Z" fill="#F7941D"/>
<path opacity="0.4" d="M44.8497 15.9198C44.8497 16.132 44.8286 16.3337 44.7758 16.5247C44.7229 16.7158 44.6596 16.8962 44.5751 17.0554C44.4906 17.2146 44.3744 17.3632 44.2476 17.5012C44.1209 17.6286 43.9835 17.7453 43.8251 17.8409C43.6667 17.9364 43.4977 18.0001 43.3075 18.0531C43.1174 18.1062 42.9273 18.1274 42.7266 18.1274H41.3323L41.8076 14.2322H43.2125C43.466 14.2322 43.6983 14.2746 43.899 14.3595C44.0997 14.4445 44.2793 14.5612 44.4166 14.7204C44.5539 14.869 44.6701 15.0494 44.7441 15.2617C44.818 15.4528 44.8497 15.6756 44.8497 15.9198ZM43.9624 15.941C43.9624 15.7818 43.9413 15.6438 43.9096 15.5058C43.8779 15.3785 43.8145 15.2617 43.7512 15.1768C43.6772 15.0813 43.5927 15.0176 43.4871 14.9645C43.3815 14.9115 43.2653 14.8902 43.128 14.8902H42.6104L42.3041 17.4481H42.8216C43.0012 17.4481 43.1596 17.4163 43.297 17.342C43.4343 17.2677 43.561 17.1722 43.6561 17.0448C43.7512 16.9175 43.8357 16.7582 43.8885 16.5672C43.9413 16.3762 43.9624 16.1639 43.9624 15.941Z" fill="#F7941D"/>
<path opacity="0.4" d="M45.906 18.116H45.0293L45.5046 14.2207H46.3813L45.906 18.116Z" fill="#F7941D"/>
<path opacity="0.4" d="M48.3143 17.4793C48.4199 17.4793 48.515 17.4687 48.5995 17.4475C48.684 17.4263 48.7685 17.405 48.8424 17.3732L48.9164 16.7364H48.5889C48.5361 16.7364 48.5044 16.7258 48.4727 16.7045C48.441 16.6833 48.4305 16.6515 48.4305 16.609L48.4939 16.1102H49.7825L49.5818 17.7341C49.4868 17.8084 49.3811 17.8721 49.2755 17.9251C49.1699 17.9782 49.0537 18.0206 48.9375 18.0525C48.8213 18.0843 48.6946 18.1162 48.5678 18.1268C48.441 18.148 48.3037 18.148 48.1558 18.148C47.9129 18.148 47.7016 18.1056 47.5009 18.0206C47.3003 17.9357 47.1313 17.8084 46.9939 17.6598C46.8566 17.5112 46.7404 17.3201 46.6665 17.1079C46.5925 16.8956 46.5503 16.6621 46.5503 16.418C46.5503 16.2057 46.5714 15.9934 46.6242 15.8024C46.677 15.6113 46.7404 15.4309 46.8355 15.2611C46.9306 15.0913 47.0362 14.9427 47.1629 14.8153C47.2897 14.6773 47.427 14.5712 47.5855 14.4757C47.7439 14.3801 47.9129 14.3058 48.0819 14.2528C48.2615 14.1997 48.4516 14.1785 48.6417 14.1785C48.8107 14.1785 48.9586 14.1891 49.0854 14.2209C49.2227 14.2528 49.3389 14.2952 49.4445 14.3377C49.5501 14.3907 49.6452 14.4438 49.7297 14.5181C49.8142 14.5818 49.8881 14.6561 49.9515 14.7304L49.6663 15.0806C49.603 15.1549 49.529 15.1974 49.4551 15.1974C49.4023 15.1974 49.36 15.1762 49.3072 15.1443C49.2438 15.1019 49.1804 15.07 49.1276 15.0382C49.0748 15.0063 49.022 14.9851 48.9586 14.9639C48.9058 14.9427 48.8424 14.932 48.7791 14.9214C48.7157 14.9108 48.6417 14.9002 48.5678 14.9002C48.3988 14.9002 48.2403 14.932 48.103 15.0063C47.9657 15.0806 47.839 15.1762 47.7439 15.3141C47.6383 15.4415 47.5643 15.6007 47.5115 15.7811C47.4587 15.9616 47.427 16.1632 47.427 16.3861C47.427 16.5559 47.4481 16.7152 47.4904 16.8425C47.5326 16.9805 47.596 17.0973 47.67 17.1822C47.7439 17.2777 47.839 17.352 47.9446 17.3944C48.0608 17.4581 48.177 17.4793 48.3143 17.4793Z" fill="#F7941D"/>
<path opacity="0.4" d="M50.9551 18.116H50.0784L50.5537 14.2207H51.4304L50.9551 18.116Z" fill="#F7941D"/>
<path opacity="0.4" d="M54.6732 14.2207L54.5781 14.9106H53.5957L53.2049 18.116H52.3388L52.7296 14.9106H51.7367L51.8212 14.2207H54.6732Z" fill="#F7941D"/>
<path opacity="0.4" d="M57.4089 18.1161H56.7329C56.6589 18.1161 56.5955 18.0948 56.5533 18.063C56.511 18.0312 56.4793 17.9781 56.4688 17.925L56.3526 17.2245H55.0428L54.7576 17.925C54.7365 17.9781 54.7048 18.0205 54.6414 18.0524C54.5886 18.0948 54.5252 18.1054 54.4513 18.1054H53.7753L55.6238 14.2102H56.511L57.4089 18.1161ZM55.2857 16.6301H56.2575L56.0674 15.5157C56.0463 15.4202 56.0357 15.3246 56.0146 15.2291C55.9935 15.1336 55.9829 15.0487 55.9723 14.9638C55.9618 15.0062 55.9406 15.0593 55.9195 15.1124C55.8984 15.1654 55.8773 15.2185 55.8561 15.2716C55.835 15.3246 55.8139 15.3671 55.7928 15.4202C55.7716 15.4626 55.7611 15.4945 55.7505 15.5157L55.2857 16.6301Z" fill="#F7941D"/>
<path opacity="0.4" d="M58.5708 18.116H57.6941L58.1694 14.2207H59.0461L58.5708 18.116Z" fill="#F7941D"/>
<path opacity="0.4" d="M61.5918 14.9956C61.5601 15.0381 61.5284 15.0699 61.4967 15.0911C61.465 15.1124 61.4333 15.123 61.3911 15.123C61.3488 15.123 61.3066 15.1124 61.2643 15.0805C61.2221 15.0487 61.1798 15.0275 61.127 14.9956C61.0742 14.9638 61.0214 14.9319 60.958 14.9107C60.8946 14.8895 60.8101 14.8682 60.7256 14.8682C60.6411 14.8682 60.5778 14.8789 60.5144 14.9001C60.451 14.9213 60.3982 14.9532 60.3665 14.9956C60.3243 15.0381 60.2926 15.0805 60.2714 15.1442C60.2503 15.1973 60.2398 15.261 60.2398 15.3246C60.2398 15.3989 60.2609 15.452 60.3031 15.5051C60.3454 15.5581 60.3982 15.6006 60.4616 15.6324C60.5249 15.6643 60.5989 15.7067 60.6834 15.728C60.7679 15.7492 60.8524 15.7916 60.9369 15.8235C61.0214 15.8553 61.1059 15.8978 61.1904 15.9508C61.2749 15.9933 61.3488 16.057 61.4122 16.1207C61.4756 16.195 61.5284 16.2693 61.5707 16.3754C61.6129 16.4709 61.634 16.5877 61.634 16.7257C61.634 16.9167 61.6024 17.1077 61.5284 17.2776C61.465 17.4474 61.3594 17.6066 61.2432 17.734C61.1165 17.8613 60.9686 17.9675 60.789 18.0418C60.6095 18.1161 60.4088 18.1585 60.1764 18.1585C60.0602 18.1585 59.9546 18.1479 59.8384 18.1161C59.7222 18.0948 59.6165 18.0524 59.5109 18.0099C59.4053 17.9675 59.3102 17.9144 59.2257 17.8507C59.1412 17.787 59.0567 17.7233 59.0039 17.6384L59.3102 17.2351C59.3314 17.2033 59.363 17.182 59.4053 17.1608C59.4475 17.1396 59.4792 17.129 59.5215 17.129C59.5743 17.129 59.6165 17.1502 59.6694 17.182C59.7116 17.2139 59.7644 17.2563 59.8278 17.2988C59.8806 17.3413 59.9546 17.3837 60.0285 17.4155C60.1024 17.4474 60.1975 17.4686 60.3031 17.4686C60.4616 17.4686 60.5883 17.4262 60.6728 17.3413C60.7573 17.2563 60.7996 17.1184 60.7996 16.9485C60.7996 16.8636 60.7785 16.8 60.7362 16.7469C60.694 16.6938 60.6411 16.6514 60.5778 16.6195C60.5144 16.5877 60.4404 16.5558 60.3559 16.524C60.2714 16.4922 60.1869 16.4709 60.1024 16.4391C60.0179 16.4072 59.9334 16.3648 59.8489 16.3223C59.7644 16.2799 59.6905 16.2268 59.6271 16.1525C59.5637 16.0782 59.5109 15.9933 59.4687 15.8978C59.4264 15.7916 59.4053 15.6643 59.4053 15.5157C59.4053 15.3459 59.437 15.176 59.5004 15.0168C59.5637 14.8576 59.6588 14.7197 59.775 14.5923C59.8912 14.4649 60.0391 14.3694 60.2186 14.2951C60.3876 14.2208 60.5883 14.189 60.7996 14.189C60.9052 14.189 61.0214 14.1996 61.1165 14.2208C61.2221 14.242 61.3172 14.2739 61.4122 14.3163C61.5073 14.3588 61.5812 14.4012 61.6552 14.4649C61.7291 14.518 61.7925 14.5817 61.8453 14.6454L61.5918 14.9956Z" fill="#F7941D"/>
</svg>
