<svg width="24" height="25" viewBox="0 0 24 25" fill="none" xmlns="http://www.w3.org/2000/svg">
<path fill-rule="evenodd" clip-rule="evenodd" d="M11 7.14941C8.79086 7.14941 7 8.97849 7 11.2348C7 13.491 8.79086 15.3202 11 15.3202C13.2091 15.3202 15 13.491 15 11.2348C15 8.97849 13.2091 7.14941 11 7.14941ZM5 11.2348C5 7.85035 7.68629 5.10672 11 5.10672C14.3137 5.10672 17 7.85035 17 11.2348C17 12.5582 16.5892 13.7838 15.8907 14.7855L19.7071 18.6833C20.0976 19.0822 20.0976 19.7289 19.7071 20.1277C19.3166 20.5266 18.6834 20.5266 18.2929 20.1277L14.4765 16.2299C13.4957 16.9433 12.2958 17.3629 11 17.3629C7.68629 17.3629 5 14.6192 5 11.2348Z" fill="#047BC1"/>
</svg>
