<svg width="31" height="31" viewBox="0 0 31 31" fill="none" xmlns="http://www.w3.org/2000/svg">
<path fill-rule="evenodd" clip-rule="evenodd" d="M0 15.4997C0 6.93954 6.93973 0 15.4999 0C24.0605 0 31 6.93954 31 15.4997C31 24.0608 24.0605 31 15.4999 31C6.93973 31 0 24.0608 0 15.4997ZM6.66154 11.9486C11.4311 10.501 19.6724 10.7738 24.6687 13.741C25.3559 14.1501 26.2464 13.9229 26.655 13.234C27.0633 12.5463 26.8375 11.6565 26.1484 11.2475C20.3966 7.83315 11.2951 7.51221 5.81975 9.17412C5.0533 9.40696 4.62149 10.2164 4.85359 10.9828C5.08551 11.7487 5.89545 12.1811 6.66154 11.9486ZM22.8428 18.5337C23.4108 18.883 24.1545 18.7045 24.505 18.1358C24.8543 17.5683 24.6755 16.8242 24.1075 16.4744C19.3233 13.5343 12.3249 12.7069 6.69541 14.4153C6.05741 14.6096 5.69704 15.2834 5.88953 15.9223C6.08369 16.5603 6.75871 16.9205 7.39764 16.7274C12.3256 15.2315 18.6775 15.9734 22.8428 18.5337ZM22.6084 22.3563C22.3299 22.8131 21.7352 22.9562 21.2801 22.6778C17.6403 20.4533 13.059 19.9509 7.66361 21.1833C7.14369 21.3024 6.62545 20.9767 6.50699 20.457C6.38779 19.937 6.71244 19.4188 7.23346 19.3002C13.1378 17.9505 18.2024 18.5313 22.2879 21.0278C22.7434 21.306 22.8868 21.901 22.6084 22.3563Z" fill="#14467C"/>
</svg>
