<svg width="32" height="31" viewBox="0 0 32 31" fill="none" xmlns="http://www.w3.org/2000/svg">
<path d="M0 15.5C0 6.93959 7.16344 0 16 0C24.8366 0 32 6.93959 32 15.5C32 24.0604 24.8366 31 16 31C7.16344 31 0 24.0604 0 15.5Z" fill="white"/>
<path d="M15.5208 12.5986L15.5544 13.1349L14.9948 13.0693C12.9579 12.8175 11.1784 11.9638 9.66756 10.5299L8.92891 9.81841L8.73865 10.3438C8.33575 11.515 8.59316 12.7518 9.43253 13.5837C9.8802 14.0434 9.77948 14.1091 9.00725 13.8355C8.73865 13.7479 8.50363 13.6822 8.48124 13.715C8.4029 13.7917 8.6715 14.7877 8.88414 15.1818C9.17513 15.729 9.76828 16.2654 10.4174 16.5828L10.9658 16.8345L10.3167 16.8455C9.68994 16.8455 9.66756 16.8564 9.73471 17.0863C9.95854 17.7978 10.8427 18.553 11.8276 18.8814L12.5214 19.1112L11.9171 19.4615C11.0218 19.965 9.96973 20.2496 8.91772 20.2715C8.41409 20.2824 8 20.3262 8 20.359C8 20.4685 9.36538 21.0814 10.16 21.3222C12.5438 22.0337 15.3753 21.7272 17.5017 20.5123C19.0126 19.6476 20.5235 17.9291 21.2286 16.2654C21.6091 15.3788 21.9896 13.7588 21.9896 12.9817C21.9896 12.4782 22.0232 12.4125 22.6499 11.8105C23.0192 11.4603 23.3662 11.0772 23.4333 10.9677C23.5452 10.7597 23.534 10.7597 22.9633 10.9458C22.012 11.2742 21.8777 11.2304 22.3477 10.7378C22.6947 10.3876 23.1088 9.75274 23.1088 9.56666C23.1088 9.53383 22.9409 9.58855 22.7506 9.68706C22.5492 9.79652 22.1015 9.9607 21.7658 10.0592L21.1614 10.2453L20.613 9.88409C20.3108 9.68706 19.8856 9.46815 19.6617 9.40248C19.0909 9.24924 18.218 9.27113 17.7032 9.44626C16.3042 9.93881 15.4201 11.2085 15.5208 12.5986Z" fill="#F58428"/>
</svg>
