<svg width="31" height="31" viewBox="0 0 31 31" fill="none" xmlns="http://www.w3.org/2000/svg">
<path d="M0 15.5C0 6.93959 6.93959 0 15.5 0C24.0604 0 31 6.93959 31 15.5C31 24.0604 24.0604 31 15.5 31C6.93959 31 0 24.0604 0 15.5Z" fill="white"/>
<path d="M23.4212 11.6723C23.2311 10.9418 22.6708 10.3667 21.9594 10.1714C20.6702 9.81667 15.5001 9.81667 15.5001 9.81667C15.5001 9.81667 10.3299 9.81667 9.0406 10.1714C8.3292 10.3667 7.76895 10.9418 7.57881 11.6723C7.2334 12.9961 7.2334 15.7583 7.2334 15.7583C7.2334 15.7583 7.2334 18.5204 7.57881 19.8444C7.76895 20.5748 8.3292 21.15 9.0406 21.3453C10.3299 21.7 15.5001 21.7 15.5001 21.7C15.5001 21.7 20.6702 21.7 21.9594 21.3453C22.6708 21.15 23.2311 20.5748 23.4212 19.8444C23.7667 18.5204 23.7667 15.7583 23.7667 15.7583C23.7667 15.7583 23.7667 12.9961 23.4212 11.6723Z" fill="#F58428"/>
<path d="M13.95 18.6V13.4333L18.0833 16.0168L13.95 18.6Z" fill="white"/>
</svg>
