<svg width="31" height="31" viewBox="0 0 31 31" fill="none" xmlns="http://www.w3.org/2000/svg">
<path d="M0 15.5C0 6.93959 6.93959 0 15.5 0C24.0604 0 31 6.93959 31 15.5C31 24.0604 24.0604 31 15.5 31C6.93959 31 0 24.0604 0 15.5Z" fill="#14467C"/>
<path d="M23.4212 11.6723C23.231 10.9418 22.6708 10.3666 21.9594 10.1714C20.6701 9.81665 15.5 9.81665 15.5 9.81665C15.5 9.81665 10.3299 9.81665 9.04054 10.1714C8.32914 10.3666 7.76889 10.9418 7.57875 11.6723C7.23334 12.9961 7.23334 15.7583 7.23334 15.7583C7.23334 15.7583 7.23334 18.5204 7.57875 19.8444C7.76889 20.5748 8.32914 21.15 9.04054 21.3453C10.3299 21.7 15.5 21.7 15.5 21.7C15.5 21.7 20.6701 21.7 21.9594 21.3453C22.6708 21.15 23.231 20.5748 23.4212 19.8444C23.7667 18.5204 23.7667 15.7583 23.7667 15.7583C23.7667 15.7583 23.7667 12.9961 23.4212 11.6723Z" fill="#EDF1F6"/>
<path d="M13.95 18.6V13.4333L18.0833 16.0168L13.95 18.6Z" fill="#14467C"/>
</svg>
